ffmpeg version 3.4.8-0ubuntu0.2 Copyright (c) 2000-2020 the FFmpeg developers
  built with gcc 7 (Ubuntu 7.5.0-3ubuntu1~18.04)
  configuration: --prefix=/usr --extra-version=0ubuntu0.2 --toolchain=hardened --libdir=/usr/lib/x86_64-linux-gnu --incdir=/usr/include/x86_64-linux-gnu --enable-gpl --disable-stripping --enable-avresample --enable-avisynth --enable-gnutls --enable-ladspa --enable-libass --enable-libbluray --enable-libbs2b --enable-libcaca --enable-libcdio --enable-libflite --enable-libfontconfig --enable-libfreetype --enable-libfribidi --enable-libgme --enable-libgsm --enable-libmp3lame --enable-libmysofa --enable-libopenjpeg --enable-libopenmpt --enable-libopus --enable-libpulse --enable-librubberband --enable-librsvg --enable-libshine --enable-libsnappy --enable-libsoxr --enable-libspeex --enable-libssh --enable-libtheora --enable-libtwolame --enable-libvorbis --enable-libvpx --enable-libwavpack --enable-libwebp --enable-libx265 --enable-libxml2 --enable-libxvid --enable-libzmq --enable-libzvbi --enable-omx --enable-openal --enable-opengl --enable-sdl2 --enable-libdc1394 --enable-libdrm --enable-libiec61883 --enable-chromaprint --enable-frei0r --enable-libopencv --enable-libx264 --enable-shared
  libavutil      55. 78.100 / 55. 78.100
  libavcodec     57.107.100 / 57.107.100
  libavformat    57. 83.100 / 57. 83.100
  libavdevice    57. 10.100 / 57. 10.100
  libavfilter     6.107.100 /  6.107.100
  libavresample   3.  7.  0 /  3.  7.  0
  libswscale      4.  8.100 /  4.  8.100
  libswresample   2.  9.100 /  2.  9.100
  libpostproc    54.  7.100 / 54.  7.100
[rawvideo @ 0x556056892a20] Estimating duration from bitrate, this may be inaccurate
Input #0, rawvideo, from '../../SVC-Encoder-20220109T061506Z-001/SVC-Encoder/Dataset/RollerCoaster/ERP_8x8/tile_yuv/Tile_43_480x240.yuv':
  Duration: 00:00:10.00, start: 0.000000, bitrate: 41472 kb/s
    Stream #0:0: Video: rawvideo (I420 / 0x30323449), yuv420p, 480x240, 41472 kb/s, 30 tbr, 30 tbn, 30 tbc
Stream mapping:
  Stream #0:0 -> #0:0 (rawvideo (native) -> h264 (libx264))
Press [q] to stop, [?] for help
[libx264 @ 0x55605689fc60] using cpu capabilities: MMX2 SSE2Fast LZCNT SSSE3 SSE4.2 AVX
[libx264 @ 0x55605689fc60] profile High, level 2.1
Output #0, rawvideo, to 'RollerCoaster_Tile_43_480x240_x264_QP_24.h264':
  Metadata:
    encoder         : Lavf57.83.100
    Stream #0:0: Video: h264 (libx264), yuv420p, 480x240, q=-1--1, 30 fps, 30 tbn, 30 tbc
    Metadata:
      encoder         : Lavc57.107.100 libx264
    Side data:
      cpb: bitrate max/min/avg: 0/0/0 buffer size: 0 vbv_delay: -1
frame=  127 fps=0.0 q=30.0 PSNR=Y:nan U:nan V:nan *:nan size=     141kB time=00:00:02.80 bitrate= 412.5kbits/s speed=5.54x    frame=  242 fps=240 q=30.0 PSNR=Y:nan U:nan V:nan *:nan size=     256kB time=00:00:06.63 bitrate= 316.2kbits/s speed=6.58x    frame=  300 fps=213 q=30.0 LPSNR=Y:inf U:inf V:inf *:inf size=     448kB time=00:00:09.93 bitrate= 369.8kbits/s speed=7.07x    
video:448kB audio:0kB subtitle:0kB other streams:0kB global headers:0kB muxing overhead: 0.000000%
[libx264 @ 0x55605689fc60] frame I:2     Avg QP:22.91  size: 14576  PSNR Mean Y:44.36 U:47.01 V:50.11 Avg:45.32 Global:45.26
[libx264 @ 0x55605689fc60] frame P:79    Avg QP:24.25  size:  3729  PSNR Mean Y:42.06 U:46.68 V:49.36 Avg:43.28 Global:43.22
[libx264 @ 0x55605689fc60] frame B:219   Avg QP:29.44  size:   618  PSNR Mean Y:41.97 U:46.89 V:49.35 Avg:43.21 Global:43.13
[libx264 @ 0x55605689fc60] consecutive B-frames:  1.0%  4.7%  1.0% 93.3%
[libx264 @ 0x55605689fc60] mb I  I16..4:  7.0% 65.8% 27.2%
[libx264 @ 0x55605689fc60] mb P  I16..4:  0.7%  1.4%  0.6%  P16..4: 42.8% 28.2% 13.4%  0.0%  0.0%    skip:12.9%
[libx264 @ 0x55605689fc60] mb B  I16..4:  0.0%  0.1%  0.0%  B16..8: 45.9%  8.0%  0.9%  direct: 0.5%  skip:44.4%  L0:39.8% L1:51.7% BI: 8.5%
[libx264 @ 0x55605689fc60] 8x8 transform intra:58.9% inter:66.6%
[libx264 @ 0x55605689fc60] coded y,uvDC,uvAC intra: 69.7% 80.5% 40.4% inter: 13.2% 12.5% 0.4%
[libx264 @ 0x55605689fc60] i16 v,h,dc,p: 29% 33% 13% 25%
[libx264 @ 0x55605689fc60] i8 v,h,dc,ddl,ddr,vr,hd,vl,hu: 15% 31% 15%  6%  3%  3%  9% 12%  6%
[libx264 @ 0x55605689fc60] i4 v,h,dc,ddl,ddr,vr,hd,vl,hu: 14% 30% 14%  8%  4%  3% 11% 10%  6%
[libx264 @ 0x55605689fc60] i8c dc,h,v,p: 40% 29% 15% 16%
[libx264 @ 0x55605689fc60] Weighted P-Frames: Y:0.0% UV:0.0%
[libx264 @ 0x55605689fc60] ref P L0: 62.8% 19.8% 14.2%  3.2%
[libx264 @ 0x55605689fc60] ref B L0: 91.4%  7.5%  1.1%
[libx264 @ 0x55605689fc60] ref B L1: 94.8%  5.2%
[libx264 @ 0x55605689fc60] PSNR Mean Y:42.011 U:46.835 V:49.355 Avg:43.244 Global:43.162 kb/s:367.31
